<svg width="238" height="238" xmlns="http://www.w3.org/2000/svg" xmlns:xlink="http://www.w3.org/1999/xlink" xml:space="preserve" overflow="hidden"><defs><clipPath id="clip0"><rect x="88" y="98" width="238" height="238"/></clipPath><clipPath id="clip1"><rect x="88" y="98" width="238" height="238"/></clipPath><clipPath id="clip2"><rect x="89" y="99" width="237" height="237"/></clipPath><clipPath id="clip3"><rect x="89" y="99" width="237" height="237"/></clipPath></defs><g clip-path="url(#clip0)" transform="translate(-88 -98)"><g clip-path="url(#clip1)"><g clip-path="url(#clip2)"><g clip-path="url(#clip3)"><path d="M6.16076 7.39291 242.734 7.39291 242.734 243.966 6.16076 243.966Z" fill="#D0CECE" fill-rule="nonzero" fill-opacity="1" transform="matrix(1.00275 0 0 1 82.9079 92.0921)"/><path d="M6.16076 147.858 242.734 147.858 242.734 243.966 6.16076 243.966Z" fill="#75BCB3" fill-rule="nonzero" fill-opacity="1" transform="matrix(1.00275 0 0 1 82.9079 92.0921)"/><path d="M59.554 64.8933 161.823 64.8933 161.823 147.858 59.554 147.858Z" fill="#ED7D31" fill-rule="nonzero" fill-opacity="1" transform="matrix(1.00275 0 0 1 82.9079 92.0921)"/><path d="M9.6162 82.985 90.4095 19.7819 183.764 62.2931Z" fill="#FFC000" fill-rule="evenodd" fill-opacity="1" transform="matrix(1.00275 0 0 1 82.9079 92.0921)"/><text fill="#3C2C48" fill-opacity="1" font-family="Arial Black,Arial Black_MSFontService,sans-serif" font-style="normal" font-variant="normal" font-weight="900" font-stretch="normal" font-size="360" text-anchor="start" direction="ltr" writing-mode="lr-tb" unicode-bidi="normal" text-decoration="none" transform="matrix(-0.411847 5.02985e-17 -5.04369e-17 -0.410717 320.582 191)">C</text><text fill="#3C2C48" fill-opacity="1" font-family="Arial Black,Arial Black_MSFontService,sans-serif" font-style="normal" font-variant="normal" font-weight="900" font-stretch="normal" font-size="360" text-anchor="start" direction="ltr" writing-mode="lr-tb" unicode-bidi="normal" text-decoration="none" transform="matrix(0.411847 0 0 0.410717 95.6885 285)">C</text></g></g></g></g></svg>